<mxfile host="app.diagrams.net" agent="Mozilla/5.0 (X11; Linux x86_64) AppleWebKit/537.36 (KHTML, like Gecko) Chrome/140.0.0.0 Safari/537.36" version="28.2.3">
  <diagram id="Ht1M8jgEwFfnCIfOTk4-" name="Page-1">
    <mxGraphModel dx="1388" dy="626" grid="1" gridSize="10" guides="1" tooltips="1" connect="1" arrows="1" fold="1" page="1" pageScale="1" pageWidth="827" pageHeight="1169" math="0" shadow="0">
      <root>
        <mxCell id="0" />
        <mxCell id="1" parent="0" />
        <mxCell id="UEzPUAAOIrF-is8g5C7q-2" value="AWS Cloud" style="points=[[0,0],[0.25,0],[0.5,0],[0.75,0],[1,0],[1,0.25],[1,0.5],[1,0.75],[1,1],[0.75,1],[0.5,1],[0.25,1],[0,1],[0,0.75],[0,0.5],[0,0.25]];outlineConnect=0;gradientColor=none;html=1;whiteSpace=wrap;fontSize=12;fontStyle=0;shape=mxgraph.aws4.group;grIcon=mxgraph.aws4.group_aws_cloud_alt;strokeColor=#232F3E;fillColor=none;verticalAlign=top;align=left;spacingLeft=30;fontColor=#232F3E;dashed=0;container=1;pointerEvents=0;collapsible=0;recursiveResize=0;" parent="1" vertex="1">
          <mxGeometry x="30" y="30" width="730" height="385" as="geometry" />
        </mxCell>
        <mxCell id="xW7QvYT_-SauhzG2XjDt-5" style="edgeStyle=orthogonalEdgeStyle;rounded=0;orthogonalLoop=1;jettySize=auto;html=1;exitX=1;exitY=0.5;exitDx=0;exitDy=0;" parent="UEzPUAAOIrF-is8g5C7q-2" source="PmF3IWkPRe69s--DCm3D-4" target="xW7QvYT_-SauhzG2XjDt-4" edge="1">
          <mxGeometry relative="1" as="geometry">
            <mxPoint x="330" y="177.5" as="sourcePoint" />
          </mxGeometry>
        </mxCell>
        <mxCell id="xW7QvYT_-SauhzG2XjDt-4" value="API/ IA" style="sketch=0;outlineConnect=0;fontColor=#232F3E;gradientColor=none;fillColor=#232F3D;strokeColor=none;dashed=0;verticalLabelPosition=bottom;verticalAlign=top;align=center;html=1;fontSize=12;fontStyle=0;aspect=fixed;pointerEvents=1;shape=mxgraph.aws4.external_sdk;" parent="UEzPUAAOIrF-is8g5C7q-2" vertex="1">
          <mxGeometry x="400" y="138.5" width="68" height="78" as="geometry" />
        </mxCell>
        <mxCell id="xW7QvYT_-SauhzG2XjDt-8" value="S3" style="outlineConnect=0;dashed=0;verticalLabelPosition=bottom;verticalAlign=top;align=center;html=1;shape=mxgraph.aws3.s3;fillColor=#E05243;gradientColor=none;" parent="UEzPUAAOIrF-is8g5C7q-2" vertex="1">
          <mxGeometry x="600" y="131" width="76.5" height="93" as="geometry" />
        </mxCell>
        <mxCell id="xW7QvYT_-SauhzG2XjDt-9" style="edgeStyle=orthogonalEdgeStyle;rounded=0;orthogonalLoop=1;jettySize=auto;html=1;entryX=0;entryY=0.5;entryDx=0;entryDy=0;entryPerimeter=0;" parent="UEzPUAAOIrF-is8g5C7q-2" source="xW7QvYT_-SauhzG2XjDt-4" target="xW7QvYT_-SauhzG2XjDt-8" edge="1">
          <mxGeometry relative="1" as="geometry" />
        </mxCell>
        <mxCell id="PmF3IWkPRe69s--DCm3D-5" style="edgeStyle=orthogonalEdgeStyle;rounded=0;orthogonalLoop=1;jettySize=auto;html=1;" edge="1" parent="UEzPUAAOIrF-is8g5C7q-2" source="PmF3IWkPRe69s--DCm3D-1" target="PmF3IWkPRe69s--DCm3D-4">
          <mxGeometry relative="1" as="geometry" />
        </mxCell>
        <mxCell id="PmF3IWkPRe69s--DCm3D-1" value="Cron Job" style="html=1;verticalLabelPosition=bottom;align=center;labelBackgroundColor=#ffffff;verticalAlign=top;strokeWidth=2;strokeColor=#0080F0;shadow=0;dashed=0;shape=mxgraph.ios7.icons.alarm_clock;" vertex="1" parent="UEzPUAAOIrF-is8g5C7q-2">
          <mxGeometry x="75" y="163" width="27" height="30" as="geometry" />
        </mxCell>
        <mxCell id="PmF3IWkPRe69s--DCm3D-4" value="Video Service" style="rounded=0;whiteSpace=wrap;html=1;" vertex="1" parent="UEzPUAAOIrF-is8g5C7q-2">
          <mxGeometry x="190" y="148" width="120" height="60" as="geometry" />
        </mxCell>
        <mxCell id="xW7QvYT_-SauhzG2XjDt-6" style="edgeStyle=orthogonalEdgeStyle;rounded=0;orthogonalLoop=1;jettySize=auto;html=1;exitX=0.5;exitY=1;exitDx=0;exitDy=0;" parent="1" source="UEzPUAAOIrF-is8g5C7q-2" target="UEzPUAAOIrF-is8g5C7q-2" edge="1">
          <mxGeometry relative="1" as="geometry" />
        </mxCell>
        <mxCell id="xW7QvYT_-SauhzG2XjDt-7" style="edgeStyle=orthogonalEdgeStyle;rounded=0;orthogonalLoop=1;jettySize=auto;html=1;exitX=0.5;exitY=1;exitDx=0;exitDy=0;" parent="1" source="UEzPUAAOIrF-is8g5C7q-2" target="UEzPUAAOIrF-is8g5C7q-2" edge="1">
          <mxGeometry relative="1" as="geometry" />
        </mxCell>
      </root>
    </mxGraphModel>
  </diagram>
</mxfile>
